<?xml version="1.0" encoding="UTF-8" standalone="no"?>
<!-- Created with Inkscape (http://www.inkscape.org/) -->

<svg
   xmlns:dc="http://purl.org/dc/elements/1.1/"
   xmlns:cc="http://creativecommons.org/ns#"
   xmlns:rdf="http://www.w3.org/1999/02/22-rdf-syntax-ns#"
   xmlns:svg="http://www.w3.org/2000/svg"
   xmlns="http://www.w3.org/2000/svg"
   xmlns:xlink="http://www.w3.org/1999/xlink"
   xmlns:sodipodi="http://sodipodi.sourceforge.net/DTD/sodipodi-0.dtd"
   xmlns:inkscape="http://www.inkscape.org/namespaces/inkscape"
   width="220mm"
   height="220mm"
   viewBox="0 0 220 220"
   version="1.1"
   id="svg8"
   inkscape:version="0.92.2 5c3e80d, 2017-08-06"
   sodipodi:docname="logo_fluiddyn_rect.svg">
  <defs
     id="defs2">
    <clipPath
       clipPathUnits="userSpaceOnUse"
       id="clipPath943">
      <use
         x="0"
         y="0"
         xlink:href="#g939"
         id="use945"
         width="100%"
         height="100%" />
    </clipPath>
    <clipPath
       clipPathUnits="userSpaceOnUse"
       id="clipPath952">
      <use
         x="0"
         y="0"
         xlink:href="#g948"
         id="use954"
         width="100%"
         height="100%" />
    </clipPath>
  </defs>
  <sodipodi:namedview
     id="base"
     pagecolor="#ffffff"
     bordercolor="#666666"
     borderopacity="1.0"
     inkscape:pageopacity="0.0"
     inkscape:pageshadow="2"
     inkscape:zoom="2"
     inkscape:cx="121.7207"
     inkscape:cy="478.76187"
     inkscape:document-units="mm"
     inkscape:current-layer="layer1"
     showgrid="false"
     inkscape:window-width="3200"
     inkscape:window-height="1689"
     inkscape:window-x="0"
     inkscape:window-y="55"
     inkscape:window-maximized="1"
     showguides="false" />
  <metadata
     id="metadata5">
    <rdf:RDF>
      <cc:Work
         rdf:about="">
        <dc:format>image/svg+xml</dc:format>
        <dc:type
           rdf:resource="http://purl.org/dc/dcmitype/StillImage" />
        <dc:title />
      </cc:Work>
    </rdf:RDF>
  </metadata>
  <g
     inkscape:label="Layer 1"
     inkscape:groupmode="layer"
     id="layer1"
     transform="translate(0,-77)">
    <g
       id="g950"
       clip-path="url(#clipPath952)">
      <g
         inkscape:label="Clip"
         id="g948">
        <path
           style="fill:#a4d7eb;stroke-width:0.35277778"
           d="m 36.633124,215.94591 c -0.388056,-0.16157 -1.181806,-0.79675 -1.763889,-1.41151 l -1.058333,-1.11776 -0.09332,-12.76543 c -0.05132,-7.02098 -0.168174,-12.97108 -0.259668,-13.22244 -0.118048,-0.32431 -1.268988,0.11231 -3.963629,1.50365 -5.603881,2.89348 -8.317936,3.20673 -13.322276,1.53758 -4.061748,-1.35475 -8.3151482,-4.50311 -11.5170795,-8.52492 -2.3363768,-2.93463 -1.7532014,-3.14119 1.4932913,-0.52893 6.7346342,5.41895 12.8324472,7.37837 18.0630092,5.8042 0.893732,-0.26897 3.379588,-1.48002 5.524123,-2.69122 3.74887,-2.1173 3.899156,-2.24771 3.899156,-3.38338 0,-1.47845 -0.08964,-1.42048 8.290278,-5.36115 12.098373,-5.68929 17.264366,-7.45957 23.970439,-8.21417 5.999977,-0.67514 8.359158,-0.13308 25.947617,5.96195 14.891987,5.1606 23.730087,6.32755 35.277787,4.65797 10.49206,-1.51697 18.14974,-3.96005 31.12292,-9.92935 9.72198,-4.47334 15.14857,-5.66781 19.94659,-4.39054 4.10095,1.09169 6.98331,3.62956 10.40172,9.15851 1.88355,3.04648 2.35961,3.57756 3.76353,4.19858 1.54467,0.68328 1.71882,0.68944 4.47447,0.1582 1.57698,-0.30401 4.03973,-1.02151 5.47276,-1.59446 1.43303,-0.57294 2.80394,-0.96627 3.04648,-0.87406 0.65336,0.2484 0.53445,1.66211 -0.19535,2.32257 -1.18596,1.07327 -8.01147,3.06126 -10.51046,3.06126 -3.79948,0 -5.54219,-1.26009 -8.12154,-5.87239 -1.68221,-3.00807 -4.57097,-6.09887 -6.68871,-7.15652 -3.08083,-1.53864 -8.10396,-1.38472 -13.37769,0.40992 -1.16417,0.39616 -4.89479,1.98417 -8.29028,3.5289 -10.2255,4.65196 -16.25606,6.74159 -24.51806,8.49567 -7.27359,1.54423 -9.6694,1.81394 -15.875,1.78714 -9.51598,-0.0411 -12.82236,-0.77942 -31.044445,-6.93215 l -12.7,-4.28819 -4.7625,-0.003 c -4.847513,-0.003 -7.198173,0.33579 -11.288889,1.62864 -5.086714,1.60764 -19.269728,7.98836 -18.439635,8.29571 0.238686,0.0884 1.349936,-0.11063 2.469445,-0.44224 3.081168,-0.91268 14.231966,-1.10829 21.261857,-0.37299 9.590479,1.00313 19.980554,2.95006 34.043056,6.37911 17.737121,4.32508 27.650731,5.23845 38.250261,3.5241 8.79205,-1.42201 15.0539,-4.52657 25.07335,-12.43112 1.84327,-1.45419 4.54202,-3.21717 5.99723,-3.91774 2.43798,-1.1737 2.88139,-1.27057 5.64444,-1.23314 6.73271,0.0913 11.20384,2.58455 13.05096,6.7195 0.10609,0.2375 0.15252,0.71786 0.24123,0.96605 1.73521,0.99564 2.75285,3.33018 4.72405,3.66505 2.7325,0.25568 -1.04821,-0.2091 -1.01362,0.42475 0.0411,0.75281 0.77847,1.60743 0.67107,1.53536 -0.0393,-0.0264 -0.19153,-0.17664 -0.53215,-0.50116 -2.06095,-2.89571 -3.66492,-4.10186 -4.91931,-3.9502 -0.58344,0.0705 -1.63889,0.55993 -1.63889,1.08339 0,0.84432 1.9498,2.82335 4.01772,4.07794 1.3676,0.82971 2.19027,1.04313 4.60064,1.19351 3.22186,0.201 2.61984,0.41781 9.42404,-3.39398 1.09506,-0.61346 2.60318,-1.15228 3.35139,-1.19737 l 1.36037,-0.082 0.089,15.16944 c 0.0858,14.61592 0.0634,15.21141 -0.61413,16.3192 -0.38673,0.63237 -1.22053,1.46521 -1.85289,1.85077 -1.13887,0.69437 -1.92973,0.70081 -83.52337,0.67997 -45.305489,-0.0116 -82.691114,-0.15324 -83.07917,-0.31481 z M 160.94045,197.84568 c -107.293633,66.10288 -53.64682,33.05144 0,0 z M 33.869698,177.59643 c -0.129352,-0.12935 -0.235185,-6.3257 -0.235185,-13.76966 0,-14.9811 0.05199,-15.37815 2.183632,-16.67777 1.162484,-0.70875 1.541564,-0.71197 83.955275,-0.71328 l 82.78752,-0.001 1.13337,0.95366 c 1.98378,1.66925 2.09576,2.33105 2.09576,12.38589 0,10.59771 0.28872,9.79495 -3.97319,11.04708 -2.42594,0.71273 -2.92296,0.7552 -4.35504,0.37218 -2.19136,-0.5861 -3.71887,-1.82933 -6.12622,-4.98607 -2.70757,-3.55041 -5.24373,-5.86096 -7.69362,-7.00922 -1.89946,-0.89028 -2.3055,-0.9438 -6.9561,-0.91695 -5.81074,0.0335 -6.99989,0.38438 -15.16944,4.47531 -10.32583,5.1707 -19.50869,8.4995 -28.575,10.35848 -4.49425,0.92152 -5.58997,1.01269 -12.17083,1.01269 -5.63885,0 -7.8925,-0.14064 -10.23056,-0.63846 -3.97498,-0.84635 -10.03931,-2.88566 -15.806675,-5.31546 -9.936536,-4.18629 -14.921075,-5.51136 -20.73227,-5.51136 -6.692406,0 -12.940507,2.22786 -29.870129,10.65065 -8.813597,4.38492 -9.763464,4.78145 -10.261298,4.28361 z m 11.2959,-7.80663 c 14.69795,-7.28045 20.923077,-9.51204 27.45086,-9.84063 5.957133,-0.29987 11.691394,0.98488 20.226803,4.53175 11.715929,4.86853 16.738719,6.3534 23.581919,6.97143 6.91118,0.62417 15.84349,-0.56947 24.95637,-3.33496 5.72888,-1.73855 9.81988,-3.40957 18.44711,-7.53496 4.03273,-1.92838 8.44349,-3.84494 9.80169,-4.25902 3.51756,-1.07242 8.54219,-1.32018 11.84316,-0.58397 4.49843,1.00328 7.13413,2.8915 11.38448,8.15587 3.24904,4.0242 4.4501,4.87758 6.58537,4.67908 0.87493,-0.0813 2.06556,-0.37565 2.64584,-0.65403 l 1.05504,-0.50614 v -8.49599 c 0,-6.68277 -0.10333,-8.62038 -0.48417,-9.0788 -0.44765,-0.53885 -6.69907,-0.58281 -82.875,-0.58281 -76.170481,0 -82.439543,0.0441 -83.035974,0.58384 -0.600429,0.54338 -0.645139,1.39908 -0.645139,12.34722 0,7.0757 0.13166,11.76338 0.330392,11.76338 0.181715,0 4.110777,-1.87257 8.731249,-4.16126 z"
           id="path925"
           inkscape:connector-curvature="0"
           sodipodi:nodetypes="cccscsccscssscscsccsccccsssccssscccccssscscsccsscssscccccccscccccsccccsscsccscsssssccsssssscsccccscscsss" />
      </g>
    </g>
    <path
       sodipodi:nodetypes="cssscccscssccsscssssccsssccccscscscccsccscccccsscscccsssccccsccscccccscsccccccscssccccccsssscccccscsccssccc"
       inkscape:connector-curvature="0"
       id="path923"
       d="m 36.456735,215.31371 c -2.418062,-1.20796 -2.468281,-1.53086 -2.468896,-15.87445 -4.85e-4,-11.31051 -0.06368,-12.7882 -0.546887,-12.7882 -0.300486,0 -2.266058,0.89576 -4.367937,1.99058 -3.407678,1.77498 -4.106026,2.00883 -6.447631,2.15911 -5.293545,0.33972 -9.901774,-1.54594 -14.5277829,-5.94467 -1.573935,-1.4966 -2.7732404,-2.81209 -2.6651233,-2.92329 0.1081173,-0.11121 1.2304403,0.55153 2.4940511,1.47275 3.2224241,2.34927 6.5711331,3.9122 9.8228691,4.58459 3.568023,0.73778 6.128035,0.27759 9.887892,-1.77748 1.455209,-0.79539 3.637946,-1.98521 4.850526,-2.64405 1.98124,-1.07648 2.166202,-1.26981 1.824919,-1.9075 -0.208876,-0.39029 -0.288748,-0.94682 -0.177493,-1.23675 0.209168,-0.54508 8.618654,-4.71311 15.727049,-7.79486 8.753122,-3.7948 13.294138,-4.82662 20.284722,-4.60914 l 4.586112,0.14268 12.7,4.28852 c 6.985,2.35869 13.970005,4.60139 15.522225,4.98377 10.37626,2.55613 21.26533,2.39022 32.77946,-0.49944 8.05778,-2.02224 12.66295,-3.69952 22.25387,-8.10525 6.7349,-3.09378 9.97314,-4.21303 13.75834,-4.75537 3.33522,-0.47786 6.44163,-0.0919 8.94437,1.11142 2.31369,1.11239 5.24486,4.19078 7.39936,7.77099 2.07832,3.45362 3.39598,4.73973 5.20336,5.0788 1.57305,0.29511 4.70272,-0.3171 8.53393,-1.66935 2.97915,-1.05151 3.86071,-1.01238 3.41407,0.15155 -0.43728,1.13953 -7.65295,3.41376 -10.864,3.4241 -3.211,0.0103 -5.01902,-1.36938 -7.55574,-5.76585 -1.83146,-3.17418 -4.57855,-6.15573 -6.64124,-7.20803 -4.53252,-2.31232 -10.79101,-1.42238 -19.89939,2.82965 -17.11199,7.98832 -29.58642,11.30549 -42.50973,11.30408 -9.38046,-0.001 -14.61279,-1.20699 -32.80833,-7.56173 -8.813119,-3.07795 -11.85696,-3.81753 -15.724639,-3.82069 -5.937596,-0.005 -10.729073,1.21735 -19.729528,5.03258 -4.623872,1.96003 -12.91811,6.10332 -13.230825,6.6093 -0.25616,0.41448 -0.151389,0.39567 4.940547,-0.88697 1.74625,-0.43987 4.365625,-0.85424 5.820834,-0.92084 4.332569,-0.19825 12.370692,-0.12506 14.640278,0.13331 1.164166,0.13253 3.14688,0.33026 4.406028,0.4394 3.022071,0.26195 14.369955,2.19292 19.582861,3.33224 1.750836,0.38267 2.781286,0.62952 15.345834,3.6762 3.58951,0.87039 8.43139,1.83846 10.75972,2.15126 2.32834,0.31281 4.78896,0.67312 5.46806,0.8007 0.67909,0.12759 1.66471,0.19108 2.19026,0.1411 0.52555,-0.05 1.49866,0.0591 2.16247,0.24239 1.089,0.30068 6.00283,0.11965 12.25025,-0.45132 2.30001,-0.21021 7.92875,-1.62543 10.50755,-2.6419 4.96779,-1.95812 9.198,-4.52238 15.18809,-9.2067 4.96842,-3.88536 5.8279,-4.4211 8.70565,-5.42653 2.26733,-0.79215 2.75807,-0.84186 5.63754,-0.57104 6.50792,0.61208 11.06952,3.42819 11.68371,7.21294 l 0.0366,0.43824 -0.0938,0.33859 c 0,0 -0.22066,0.13522 -0.51326,0.24575 -0.26959,0.10185 -0.60113,0.17655 -0.85748,0.24494 -0.61468,0.16398 -1.63365,0.0483 -1.63365,0.98674 0,1.07986 1.56373,2.76517 4.05694,4.37235 1.70815,1.10111 2.57701,1.3184 5.52775,1.38239 2.3944,0.0519 3.8756,-0.5084 8.29508,-3.13792 1.92073,-1.1428 4.24891,-1.94084 4.75309,-1.62923 0.16373,0.10119 0.29769,6.8049 0.29769,14.89713 0,13.58979 -0.0494,14.80701 -0.64728,15.94238 -0.356,0.67607 -1.18944,1.50678 -1.85208,1.84603 -1.13682,0.58201 -5.8329,0.61681 -83.22564,0.61681 -77.381336,0 -82.090676,-0.0349 -83.255555,-0.61681 z m -2.234259,-38.07005 c -0.129352,-0.12936 -0.235185,-6.24911 -0.235185,-13.59947 0,-14.50183 0.0082,-14.56867 1.980804,-16.12031 l 0.936568,-0.73671 h 82.519947 c 90.17503,0 83.70034,-0.15284 85.16655,2.01045 0.60944,0.89919 0.67994,1.85179 0.783,10.57934 l 0.11325,9.59118 -1.0345,0.53496 c -0.56897,0.29423 -2.06305,0.79333 -3.32017,1.1091 -4.10151,1.03027 -6.11642,-0.16057 -11.04128,-6.52554 -2.29024,-2.95995 -4.65859,-4.71694 -7.65841,-5.68151 -2.12111,-0.68203 -2.92765,-0.75418 -6.55244,-0.58618 -5.13366,0.23794 -6.67876,0.74974 -16.55984,5.48537 -8.52416,4.08531 -12.20554,5.5726 -17.96709,7.25878 -9.03889,2.64531 -15.51173,3.57622 -22.81972,3.28187 -8.15284,-0.32838 -13.05596,-1.63784 -25.935802,-6.9266 -9.339424,-3.83498 -11.714,-4.3986 -18.570589,-4.40782 -5.466278,-0.007 -5.755799,0.0295 -9.172222,1.16843 -4.844821,1.61507 -13.309791,5.4118 -22.235704,9.97321 -7.498364,3.8319 -7.959494,4.02912 -8.397167,3.59145 z m 9.701136,-6.3205 c 8.708373,-4.35796 15.560813,-7.43344 19.504724,-8.75403 9.554951,-3.19939 16.525713,-2.49347 30.002011,3.03825 11.933123,4.89827 17.382433,6.41667 24.582953,6.84979 6.1047,0.3672 14.00155,-0.76933 22.52769,-3.24223 5.99476,-1.73871 9.87719,-3.29949 18.32964,-7.36875 8.89199,-4.28087 12.2701,-5.4348 16.72951,-5.71464 7.29576,-0.45784 11.97902,1.93529 17.20906,8.79376 2.78887,3.65724 4.25994,4.62529 6.71478,4.41877 1.021,-0.0859 2.33262,-0.38557 2.9147,-0.66593 l 1.05834,-0.50975 0.0949,-8.28467 c 0.1077,-9.40177 -0.009,-10.02218 -1.98917,-10.59361 -0.88077,-0.25414 -26.76774,-0.33725 -82.89179,-0.26611 l -81.61104,0.10344 -0.674376,0.83283 c -0.634185,0.7832 -0.674374,1.54182 -0.674374,12.7294 0,10.51129 0.0887,12.36694 0.591169,12.36694 0.06644,0 3.478006,-1.68006 7.581263,-3.73346 z"
       style="fill:#61c9ed;stroke-width:0.35277778" />
    <path
       inkscape:connector-curvature="0"
       id="path917"
       d="m 36.985902,215.08407 c -0.582084,-0.25694 -1.375834,-0.82282 -1.763889,-1.25752 -0.675505,-0.75669 -0.709981,-1.36737 -0.809459,-14.33845 l -0.103904,-13.54811 0.985848,-0.3814 c 1.798427,-0.69575 5.721904,-1.38723 9.352816,-1.64836 l 3.584332,-0.25778 0.290491,-1.12433 c 0.539535,-2.08825 1.651417,-2.57983 5.835195,-2.57983 3.387662,0 3.671578,0.0512 3.420195,0.61736 -0.150774,0.33954 -0.341235,1.2762 -0.423241,2.08145 -0.167849,1.64815 -0.214168,1.62308 3.855621,2.08642 l 1.999001,0.22759 0.927696,-1.40184 c 1.632113,-2.46629 3.1623,-2.83603 8.17178,-1.97458 l 1.103041,0.18969 -0.73865,1.74833 c -1.008059,2.38601 -0.678755,2.80355 2.795775,3.5449 2.706761,0.57753 3.674297,0.4527 3.674297,-0.47403 0,-0.66224 1.543851,-2.38135 2.490854,-2.77361 0.739077,-0.30613 1.484962,-0.30559 3.036789,0.002 3.549294,0.704 3.377512,0.5704 3.12201,2.42814 -0.339676,2.46973 0.15452,3.3993 2.062631,3.87977 2.000233,0.50366 2.693272,0.50723 2.693272,0.0139 0,-0.92073 1.229684,-2.85784 2.099811,-3.30779 0.830315,-0.42938 1.300254,-0.4005 3.832987,0.23556 l 2.886649,0.72494 0.002,1.27928 c 0.001,0.7036 0.16611,1.8703 0.36673,2.59267 0.32864,1.18332 0.5468,1.36805 2.2029,1.86528 1.01097,0.30354 2.53071,0.64936 3.37719,0.76848 l 1.53906,0.21659 -0.23852,-1.08598 c -0.23867,-1.08668 0.42823,-2.94284 1.23691,-3.44263 0.20754,-0.12827 1.93849,-0.0287 3.84653,0.22128 l 3.46918,0.4545 0.23316,1.75765 c 0.2423,1.82647 0.72657,3.03796 1.39201,3.48229 0.55355,0.36961 7.62011,0.33289 7.62011,-0.0396 0,-0.17027 -0.24859,-0.5159 -0.55243,-0.76806 -0.8821,-0.73207 -1.61966,-2.42533 -1.38225,-3.17332 0.16421,-0.5174 0.54038,-0.68845 1.51748,-0.69004 0.71453,-0.001 2.57882,-0.10176 4.14287,-0.22354 l 2.84373,-0.22142 0.43866,1.96016 c 0.58465,2.6125 0.99138,2.91206 3.31603,2.44237 1.01571,-0.20522 2.2997,-0.54645 2.85331,-0.7583 l 1.00656,-0.38517 -1.27115,-1.40701 c -1.9949,-2.20812 -1.82232,-2.48092 2.41634,-3.81942 6.53083,-2.06234 10.37851,-4.21144 17.48562,-9.76654 4.8671,-3.80425 6.67411,-4.92281 9.43921,-5.84298 2.11553,-0.704 2.5506,-0.73256 5.70141,-0.37428 3.91165,0.4448 6.73961,1.45853 8.43177,3.0225 1.22726,1.13429 2.67243,3.5657 2.3905,4.02187 -0.0896,0.14498 -0.69078,0.30382 -1.33596,0.35298 -3.34013,0.25451 -2.39341,2.8024 2.24962,6.0543 1.37394,0.96229 2.18036,1.22675 4.68808,1.53744 l 3.0287,0.37524 2.54387,-1.31249 c 1.39912,-0.72187 3.55984,-1.86486 4.80159,-2.53999 1.24175,-0.67512 2.63581,-1.2275 3.09792,-1.2275 h 0.84019 l -0.0993,14.79122 c -0.0965,14.37962 -0.11987,14.81892 -0.83791,15.78681 -0.40623,0.54757 -1.27936,1.18506 -1.94028,1.41665 -1.85951,0.65155 -163.765712,0.61835 -165.24335,-0.0339 z m -2.293056,-34.24869 c 0,-0.90217 14.29789,-7.70506 21.361542,-10.16376 6.489728,-2.25892 13.072628,-2.90974 18.368042,-1.81594 1.461995,0.30198 7.289366,2.13816 12.94971,4.08038 18.02119,6.18359 24.65869,7.43185 35.27463,6.63381 10.88671,-0.81839 21.53801,-3.87122 34.63636,-9.92732 9.61548,-4.44578 12.86008,-5.3785 17.93735,-5.15644 2.65074,0.11593 3.63837,0.32377 5.22326,1.09918 2.53192,1.23875 5.38163,4.24749 7.49604,7.91435 0.91972,1.59498 2.14195,3.29522 2.71608,3.77832 2.05343,1.72785 5.29916,1.63741 10.7159,-0.29861 2.38283,-0.85166 3.35998,-1.06715 3.35998,-0.741 0,0.52297 -3.48023,1.98639 -6.29895,2.64868 -1.03908,0.24414 -2.89323,0.44389 -4.12034,0.44389 -3.21625,0 -4.26674,-0.76793 -6.89003,-5.03676 -3.81852,-6.21379 -7.9625,-9.16254 -12.87645,-9.16254 -2.69411,0 -8.1666,1.50758 -12.62962,3.47926 -2.16022,0.95434 -6.12962,2.70505 -8.82088,3.89046 -7.88882,3.47474 -16.79842,6.10233 -25.44568,7.50434 -1.64746,0.2671 -5.75911,0.45567 -9.87778,0.45301 -5.90834,-0.004 -7.70732,-0.13469 -11.06405,-0.8049 -4.29124,-0.85681 -10.0456,-2.50693 -15.747057,-4.51564 -18.426385,-6.49189 -20.470041,-6.85865 -28.927779,-5.19155 -4.776812,0.94155 -12.787362,4.12257 -21.960417,8.72056 -3.81375,1.91164 -5.379861,2.54282 -5.379861,2.16822 z m -0.201522,-4.17677 c -0.101083,-0.26342 -0.13678,-6.41756 -0.07933,-13.67588 0.09437,-11.92163 0.164598,-13.28544 0.726768,-14.11271 0.34227,-0.50367 1.024427,-1.09899 1.515905,-1.32292 1.342349,-0.61161 164.735133,-0.57319 165.926393,0.039 1.9853,1.02029 2.06462,1.42442 2.28704,11.65133 l 0.20557,9.45167 -1.67027,0.73118 c -0.91865,0.40215 -2.70215,0.80761 -3.96333,0.90101 -2.09687,0.1553 -2.42329,0.0815 -3.81532,-0.86289 -0.83725,-0.56799 -2.74225,-2.59641 -4.23334,-4.50759 -5.09059,-6.52482 -10.28525,-8.76431 -17.61356,-7.59347 -3.67143,0.58658 -6.0206,1.43062 -12.085,4.34206 -11.27957,5.41517 -14.20344,6.61379 -20.79908,8.5264 -14.92863,4.32902 -27.45671,4.23329 -39.43906,-0.30134 -1.697014,-0.64222 -5.704852,-2.23422 -8.90631,-3.53776 -8.400758,-3.42056 -12.788322,-4.50532 -18.344445,-4.5354 -7.410059,-0.0401 -12.400605,1.72081 -30.435953,10.73935 -6.625919,3.31327 -9.142757,4.41694 -9.276681,4.06794 z m 10.000027,-5.49796 c 12.006549,-6.01537 19.445782,-9.04194 24.42094,-9.93536 7.239053,-1.29997 14.062608,0.0787 26.897077,5.43462 11.353352,4.73779 15.501872,5.68914 24.784872,5.68371 7.53513,-0.004 11.51198,-0.58184 19.15189,-2.78084 6.52337,-1.87762 10.51279,-3.45808 18.77172,-7.43664 11.07655,-5.3359 12.05918,-5.63758 18.36274,-5.63758 h 5.13357 l 2.64062,1.30507 c 2.8074,1.38749 5.60361,4.00045 8.83651,8.25742 1.13049,1.48857 2.15963,2.40765 3.33086,2.97463 1.68044,0.81349 1.71439,0.81538 3.97929,0.22135 1.25641,-0.32953 2.49596,-0.77475 2.75456,-0.98937 0.36874,-0.30602 0.47018,-2.28959 0.47018,-9.1936 v -8.80338 l -1.0312,-1.0312 -1.03119,-1.03119 H 119.54701 37.13022 l -0.865909,0.8659 -0.865909,0.86591 v 12.53965 c 0,12.304 0.01326,12.53965 0.705477,12.53965 0.388012,0 4.162373,-1.73194 8.387472,-3.84875 z"
       style="fill:#13aee5;stroke-width:0.35277778"
       sodipodi:nodetypes="ccsccscsscccccccccsccccscsccccccccccccscccscccccccsccscccccccsccccccscccsscccssscscscccccsssscscscccscccssscccsccscccsssccccccscccccccsss" />
    <g
       id="g941"
       clip-path="url(#clipPath943)">
      <g
         inkscape:label="Clip"
         id="g939">
        <path
           style="fill:#02629f;stroke-width:0.35277778"
           d="m 36.985902,215.08407 c -0.582084,-0.25694 -1.375834,-0.82282 -1.763889,-1.2575 -0.6747,-0.75577 -0.710117,-1.36778 -0.809847,-13.9942 l -0.104292,-13.20386 1.223954,-0.5114 c 4.478265,-1.87114 15.583674,-2.19103 26.326943,-0.75835 10.414688,1.38886 23.222377,4.01599 38.305569,7.85729 6.76973,1.72407 16.10506,3.25809 21.66462,3.56 4.1458,0.22515 12.03457,-0.36209 15.52222,-1.15546 7.2105,-1.64024 13.00158,-4.89654 21.16667,-11.90193 7.23128,-6.20421 9.63478,-7.1181 14.31338,-5.44244 2.07726,0.74398 4.97857,1.53179 8.13119,2.2079 0.48302,0.10358 0.82069,0.5203 0.95147,1.17422 0.27376,1.36881 1.51967,2.77802 3.91413,4.42714 1.72515,1.18816 2.40233,1.42487 4.99542,1.74614 l 2.99973,0.37164 2.54387,-1.31249 c 1.39913,-0.72187 3.55984,-1.86486 4.80159,-2.53999 1.24175,-0.67512 2.63581,-1.22749 3.09792,-1.22749 h 0.84019 l -0.0993,14.79121 c -0.0966,14.37962 -0.11987,14.81892 -0.83791,15.78681 -0.40623,0.54757 -1.27936,1.18506 -1.94028,1.41665 -1.85951,0.65156 -163.76571,0.61835 -165.243348,-0.0339 z M 179.72162,176.99439 c -0.47722,-0.57503 -0.1953,-1.49602 0.54489,-1.78006 0.66174,-0.25394 1.88745,0.37705 1.88745,0.97165 0,1.15003 -1.68424,1.70981 -2.43234,0.80841 z"
           id="path915"
           inkscape:connector-curvature="0"
           sodipodi:nodetypes="ccscssscssscccccscsccccccccsc" />
      </g>
      <path
         style="fill:#000000;fill-opacity:1;stroke:#aab4f3;stroke-width:0.17677669;stroke-linejoin:round;stroke-miterlimit:4;stroke-dasharray:none;stroke-opacity:1"
         d="m 682.13355,341.71591 c -1.54048,-0.28074 -2.75085,-1.17002 -3.36699,-2.47376 -0.31912,-0.67527 -0.41822,-1.73763 -0.23842,-2.55597 0.28013,-1.27498 1.25186,-2.49121 2.46366,-3.08356 0.65839,-0.32183 0.70259,-0.33062 1.64879,-0.3279 1.16736,0.003 1.75432,0.15014 3.00521,0.75149 1.43294,0.68886 2.45656,1.67165 2.70603,2.59809 0.19623,0.72876 -0.0991,1.96415 -0.67795,2.83628 -0.6238,0.9398 -1.89142,1.79977 -3.12082,2.11722 -0.6804,0.17569 -1.8477,0.24232 -2.41951,0.13811 z"
         id="path962"
         inkscape:connector-curvature="0"
         transform="matrix(0.26458333,0,0,0.26458333,0,87)" />
    </g>
    <text
       xml:space="preserve"
       style="font-style:normal;font-variant:normal;font-weight:normal;font-stretch:normal;font-size:4.23227501px;line-height:125%;font-family:Cousine;-inkscape-font-specification:'Cousine, Normal';font-variant-ligatures:normal;font-variant-caps:normal;font-variant-numeric:normal;font-feature-settings:normal;text-align:center;letter-spacing:0px;word-spacing:0px;writing-mode:lr-tb;text-anchor:middle;fill:#ffffff;fill-opacity:1;stroke:none;stroke-width:0.26458332px;stroke-linecap:butt;stroke-linejoin:miter;stroke-opacity:1"
       x="120.21688"
       y="208.64816"
       id="text936"><tspan
         sodipodi:role="line"
         id="tspan934"
         x="120.21688"
         y="208.64816"
         style="font-size:15.16944408px;fill:#ffffff;fill-opacity:1;stroke-width:0.26458332px">FluidDyn Project</tspan></text>
    <path
       style="fill:#000000;fill-opacity:1;stroke:#aab4f3;stroke-width:0.03125;stroke-linejoin:round;stroke-miterlimit:4;stroke-dasharray:none;stroke-opacity:1"
       d="m 717.7949,370.3246 c -0.14157,-0.12376 -0.15174,-0.13339 -1.18744,-1.12389 -0.59786,-0.57176 -0.71373,-0.68991 -0.8116,-0.82759 -0.30046,-0.42269 -0.98514,-1.35913 -1.37408,-1.87936 -2.90283,-3.88271 -5.58509,-6.87791 -8.07784,-9.02034 -2.43849,-2.09578 -4.72761,-3.36755 -6.78125,-3.76745 -0.57513,-0.112 -0.82006,-0.13409 -1.48681,-0.13409 h -0.57275 l 0.21337,-0.0589 c 0.90171,-0.24903 1.57117,-0.48195 2.21338,-0.77007 0.26173,-0.11742 0.84426,-0.41265 1.05338,-0.53387 l 0.16276,-0.0943 0.17734,-0.63858 0.17734,-0.63858 -0.068,-0.82031 c -0.0374,-0.45118 -0.0665,-0.8224 -0.0646,-0.82494 0.007,-0.01 0.49503,0.28986 0.80404,0.49317 1.56143,1.02737 3.03172,2.32946 5.15631,4.56641 0.15902,0.16743 0.58428,0.62082 0.94504,1.00754 1.96489,2.10632 2.76239,2.92247 3.68045,3.76651 1.7955,1.65075 3.34537,2.69042 5.0307,3.37466 0.45085,0.18305 1.09375,0.38799 1.5625,0.49809 0.53084,0.12469 0.74109,0.14943 2.73437,0.32167 0.21055,0.0182 0.53047,0.0463 0.71094,0.0625 l 0.32812,0.0294 -0.32812,-0.0101 c -0.51984,-0.016 -2.08631,-0.01 -2.52344,0.01 -1.56709,0.071 -2.65032,0.23526 -3.31872,0.50328 -0.27409,0.1099 -0.44779,0.21737 -0.5864,0.36281 -0.0961,0.10083 -0.12221,0.14447 -0.16004,0.26742 -0.0317,0.10316 -0.0324,0.11847 -0.0142,0.32813 0.0933,1.07603 0.55377,2.34162 1.36666,3.75592 0.23918,0.41614 0.45205,0.75677 0.81116,1.29803 0.31266,0.47125 0.39827,0.61128 0.3737,0.61128 -0.008,0 -0.0742,-0.0515 -0.14617,-0.11447 z"
       id="path960"
       inkscape:connector-curvature="0"
       transform="matrix(0.26458333,0,0,0.26458333,0,87)" />
  </g>
</svg>
